<svg id="Layer_1" data-name="Layer 1" xmlns="http://www.w3.org/2000/svg" viewBox="0 0 430.02 184.82"><defs><style>.cls-1{fill:#231f20;}</style></defs><title>corner-b</title><path class="cls-1" d="M423.4,0C384.58,57,316.26,95.83,220.19,115.47c-80.45,16.46-160.34,15.4-203.26,14.84-6.56-.09-12.23-.16-16.93-.16v5c4.67,0,10.32.07,16.86.16,8.9.11,19.37.25,31.11.25,45.15,0,109-2,173.23-15.19C320.15,100.13,390.19,59.63,429.42,0Z"/><path class="cls-1" d="M384,0H0V97.22C60.11,97.22,272.3,109.55,384,0Z"/><path class="cls-1" d="M16.92,112.6c-6.55-.09-12.2-.17-16.92-.17v5c4.69,0,10.32.08,16.85.17,8.86.11,19.23.25,30.81.25,95.7,0,273.75-9.47,361.78-117.85h-6.5C304.66,116.41,97.62,113.68,16.92,112.6Z"/></svg>